<svg id="Filled_expand" enable-background="new 0 0 512 512" height="512" viewBox="0 0 512 512" width="512" xmlns="http://www.w3.org/2000/svg"><path d="m504 464v-120h-97v159h97v-23z" fill="#ff593f"/><circle cx="256" cy="168" fill="#ffd642" r="160"/><circle cx="256" cy="168" fill="#fffefa" r="120"/><path d="m256 296c-70.58 0-128-57.42-128-128s57.42-128 128-128 128 57.42 128 128c0 24.253-6.815 47.861-19.709 68.272l-13.527-8.545c11.276-17.85 17.236-38.503 17.236-59.727 0-61.757-50.243-112-112-112s-112 50.243-112 112 50.243 112 112 112c31.818 0 62.247-13.608 83.483-37.335l11.922 10.671c-24.268 27.113-59.042 42.664-95.405 42.664z"/><path d="m256 336c-92.636 0-168-75.364-168-168s75.364-168 168-168 168 75.364 168 168-75.364 168-168 168zm0-320c-83.813 0-152 68.187-152 152s68.187 152 152 152 152-68.187 152-152-68.187-152-152-152z"/><path d="m360 360h48v128h-48z" fill="#fffdfa"/><path d="m448 464h32v16h-32z"/><path d="m176 416-32-8-32-32h-56l-8-8h-40v16l88 88 144 32 120-24v-88l-.402-.402c-21.869-21.869-57.327-21.869-79.196 0l-8.402 8.402h-36.919c-16.356 0-31.065 9.958-37.139 25.144l-5.942 14.856 8-24z" fill="#ffbeb5"/><path d="m176 416-32-8-32-32h-56l-8-8h-40v16l88 88 144 32 120-24v-88l-.402-.402c-21.869-21.869-57.327-21.869-79.196 0l-8.402 8.402h-36.919c-16.356 0-31.065 9.958-37.139 25.144l-5.942 14.856 8-24z" fill="#ffbeb5"/><path d="m112 376h-56l56 56 40 16h40v-16-16l-48-8z" fill="#e6aca3"/><path d="m320 120v-16h-120v16h56c10.43 0 19.327 6.688 22.629 16h-62.629v16h62.629c-3.302 9.312-12.199 16-22.629 16h-37.784c-10.045 0-18.216 8.171-18.216 18.216 0 6.362 3.389 12.347 8.844 15.62l75.04 45.024 8.231-13.72-75.04-45.024c-.664-.398-1.076-1.126-1.076-1.9 0-1.222.994-2.216 2.216-2.216h37.785c19.317 0 35.48-13.764 39.196-32h16.804v-16h-16.804c-1.204-5.908-3.715-11.347-7.216-16z"/><path d="m328 160h16v16h-16z"/><path d="m168 160h16v16h-16z"/><path d="m512 464v-120c0-4.418-3.582-8-8-8h-97c-4.418 0-8 3.582-8 8v8h-39c-4.418 0-8 3.582-8 8v15.739c-9.622-5.573-20.583-8.543-32-8.543-17.095 0-33.167 6.657-45.255 18.746l-6.059 6.058h-33.604c-14.02 0-26.906 5.973-35.823 16h-14.466l-36.848-7.37-30.288-30.287c-1.5-1.5-3.535-2.343-5.657-2.343h-24v16h20.686l29.657 29.657c1.117 1.117 2.539 1.878 4.088 2.188l40 8c.517.103 1.042.155 1.569.155h5.784l-5.212 13.029c-.986 2.465-.685 5.258.803 7.456s3.97 3.515 6.625 3.515h112v-16h-100.184l1.554-3.884c4.888-12.22 16.55-20.116 29.711-20.116h36.919c2.122 0 4.157-.843 5.657-2.343l8.402-8.402c9.066-9.066 21.12-14.059 33.941-14.059 11.926 0 23.189 4.321 32 12.221v78.025l-111.913 22.383-140.077-31.129-84.01-84.01v-4.686h28.686l61.657 61.657c.766.766 1.68 1.369 2.686 1.771l40 16c.945.378 1.954.572 2.971.572h16v-16h-14.459l-37.045-14.818-62.839-62.839c-1.5-1.5-3.535-2.343-5.657-2.343h-40c-4.418 0-8 3.582-8 8v16c0 2.122.843 4.157 2.343 5.657l88 88c1.076 1.076 2.436 1.823 3.921 2.153l144 32c.571.127 1.153.19 1.735.19.525 0 1.051-.052 1.569-.155l110.617-22.123c.787 3.591 3.986 6.279 7.814 6.279h39v7c0 4.418 3.582 8 8 8h97c4.418 0 8-3.582 8-8v-23h-16v15h-81v-3.125c.637-1.148 1-2.469 1-3.875v-128.001c0-1.406-.363-2.727-1-3.875v-4.125h81v112zm-144 16v-112h31v112z"/><path d="m448 40h16v16h-16z"/><path d="m448 72h16v16h-16z"/><path d="m432 56h16v16h-16z"/><path d="m464 56h16v16h-16z"/><path d="m48 240h16v16h-16z"/><path d="m48 272h16v16h-16z"/><path d="m32 256h16v16h-16z"/><path d="m64 256h16v16h-16z"/></svg>